<svg width="214" height="214" viewBox="0 0 214 214" fill="none" xmlns="http://www.w3.org/2000/svg">
<circle cx="107" cy="107" r="107" fill="#112D4E"/>
<mask id="mask0_2_15" style="mask-type:alpha" maskUnits="userSpaceOnUse" x="0" y="0" width="214" height="214">
<circle cx="107" cy="107" r="107" fill="#112D4E"/>
</mask>
<g mask="url(#mask0_2_15)">
<path d="M218.065 141.19C68.1668 62.2056 139.991 172.288 -5.57118 148.997L-78.4424 276.632L155.123 380.21L417.307 469.861L431.941 151.097C431.941 151.097 367.963 220.175 218.065 141.19Z" fill="#DBE2EF" stroke="#F9F7F7" stroke-width="10"/>
<circle cx="107" cy="107" r="104.5" stroke="#DBE2EF" stroke-width="5"/>
<path d="M112.015 100.247C111.508 100.254 111.037 99.9672 110.603 99.3863C110.195 98.8317 109.854 98.2095 109.578 97.5198C109.328 96.8031 109.202 96.3381 109.199 96.1248C109.195 95.8315 109.325 95.5497 109.588 95.2795C109.878 95.0089 110.169 94.8717 110.462 94.8678C110.649 94.8653 110.797 94.9433 110.906 95.1018C111.014 95.2337 111.177 95.4716 111.395 95.8154C111.668 96.2917 111.899 96.5954 112.087 96.7262C112.438 96.9882 112.724 97.4777 112.947 98.1948C113.197 98.9115 113.323 99.3899 113.326 99.6299C113.332 100.03 112.894 100.236 112.015 100.247ZM135.879 99.168C135.079 99.1787 134.309 98.4156 133.568 96.8787C132.827 95.3418 132.202 93.4833 131.693 91.3033C131.211 89.1229 130.904 87.1402 130.773 85.3551C130.072 86.7513 129.32 88.3348 128.517 90.1057C127.713 91.8499 127.08 93.3386 126.616 94.5715C125.922 96.4743 125.307 98.3227 124.77 100.117C124.745 100.17 124.706 100.291 124.655 100.478C124.605 100.692 124.527 100.84 124.421 100.921C124.342 101.003 124.21 101.044 124.023 101.047C123.623 101.052 123.315 100.963 123.099 100.779C122.91 100.622 122.734 100.357 122.569 99.9862L122.227 98.3506C121.712 95.7439 121.172 93.271 120.607 90.9316C119.988 88.513 119.361 86.5212 118.727 84.9563C118.093 83.3913 117.616 82.6109 117.296 82.6152C117.189 82.6166 117.03 82.7121 116.819 82.9016C116.608 83.0644 116.41 83.2004 116.225 83.3096C116.04 83.4188 115.88 83.4476 115.746 83.396C115.424 83.2403 115.261 83.0558 115.258 82.8425C115.256 82.6292 115.411 82.2937 115.725 81.8362C116.039 81.3786 116.394 80.9738 116.789 80.6218C117.21 80.2428 117.581 80.0512 117.901 80.0469C118.141 80.0437 118.342 80.1076 118.504 80.2388C118.692 80.343 118.881 80.5138 119.071 80.7513C119.424 81.1999 119.918 82.2601 120.554 83.9317C121.189 85.5767 121.776 87.5824 122.314 89.9487L124.048 96.9261C125.229 93.4967 126.311 90.6553 127.294 88.4019C128.304 86.1215 129.445 83.7594 130.719 81.3154C131.214 80.4021 131.741 79.9416 132.301 79.9341C132.674 79.9292 132.983 80.0584 133.226 80.3218C133.47 80.5852 133.593 80.7969 133.595 80.9569C133.596 81.0636 133.531 81.1845 133.4 81.3196C133.268 81.4547 133.163 81.5894 133.085 81.7238C132.876 82.02 132.707 82.3556 132.579 82.7307C132.477 83.1054 132.431 83.6794 132.442 84.4527C132.454 85.3859 132.634 86.8503 132.98 88.8459C133.353 90.8144 133.83 92.5815 134.411 94.1472C135.019 95.7125 135.656 96.4907 136.323 96.4818C136.723 96.4765 137.207 95.8032 137.776 94.4622C138.345 93.1211 138.829 91.4745 139.23 89.5223C139.657 87.5431 139.858 85.6469 139.834 83.8337C139.829 83.4604 139.637 83.0363 139.257 82.5613C138.958 82.1653 138.808 81.8739 138.805 81.6873C138.803 81.5273 138.92 81.299 139.156 81.0025C139.418 80.679 139.683 80.5154 139.949 80.5118C140.296 80.5072 140.62 80.7829 140.921 81.3389C141.248 81.8946 141.416 82.4524 141.423 83.0123C141.459 85.7321 141.134 88.3367 140.448 90.8261C139.787 93.2885 139.001 95.2992 138.088 96.8582C137.175 98.3906 136.439 99.1605 135.879 99.168ZM162.609 97.0901C162.613 97.41 162.485 97.7851 162.224 98.2153C161.963 98.6189 161.699 98.8224 161.432 98.826C160.979 98.832 160.628 98.5567 160.381 98C160.133 97.4432 160.005 96.7916 159.995 96.045C159.986 95.405 160.001 93.4847 160.038 90.2839L160.057 88.7635C160.049 88.1502 159.883 87.7124 159.56 87.45C158.387 89.4926 157.291 91.2674 156.271 92.7745C155.251 94.2816 153.95 95.7125 152.368 97.0671C150.785 98.3951 149.114 99.0708 147.354 99.0944C146.501 99.1058 145.831 98.8481 145.344 98.3212C144.883 97.794 144.648 97.1038 144.636 96.2505C144.622 95.184 145.082 93.7243 146.018 91.8716C146.953 89.9923 148.154 88.0961 149.622 86.1829C151.089 84.2431 152.562 82.6499 154.038 81.4034C155.014 80.5902 155.794 80.0464 156.377 79.7719C156.959 79.4708 157.477 79.3172 157.931 79.3111C158.357 79.3054 158.799 79.4328 159.256 79.6934C159.713 79.954 160.104 80.3221 160.431 80.7978C160.757 81.2734 160.924 81.8179 160.933 82.4312C160.944 83.2578 160.728 84.0474 160.284 84.8001L160.962 84.591C161.255 84.5871 161.433 84.9447 161.496 85.6639C161.528 86.0902 161.567 86.9564 161.611 88.2626C161.682 89.5685 161.736 90.6478 161.774 91.5007C161.813 92.3803 161.851 93.2332 161.888 94.0594C161.926 94.8857 161.962 95.5386 161.995 96.0182C162.024 96.2045 162.133 96.403 162.323 96.6139C162.512 96.798 162.607 96.9567 162.609 97.0901ZM158.979 85.8976C159.288 85.0934 159.437 84.2247 159.424 83.2915C159.417 82.7315 159.237 82.2539 158.885 81.8585C158.559 81.4362 158.116 81.2288 157.556 81.2363C156.89 81.2452 156.043 81.7099 155.015 82.6304C153.828 83.6597 152.58 85.0365 151.27 86.7609C149.959 88.4586 148.875 90.1399 148.017 91.8049C147.159 93.4698 146.737 94.7823 146.75 95.7422C146.76 96.5421 147.139 96.9371 147.885 96.9271C149.325 96.9078 150.705 96.356 152.024 95.2716C153.343 94.1872 154.512 92.9047 155.533 91.4243C156.579 89.9168 157.728 88.0746 158.979 85.8976ZM184.822 79.0712C183.456 80.6629 182.193 82.9334 181.033 85.8825C179.872 88.8316 178.968 92.0174 178.32 95.4397C178.246 95.8407 178.123 96.6424 177.952 97.8448L177.771 99.2473C177.697 99.675 177.515 100.011 177.225 100.255C176.961 100.498 176.483 100.625 175.789 100.634C175.656 100.636 175.192 99.8419 174.397 98.2524C173.602 96.6362 172.766 94.9006 171.888 93.0455L170.117 89.3089C169.047 87.0563 168.157 85.2948 167.446 84.0242C166.736 82.7536 166.221 82.1204 165.901 82.1247C165.794 82.1261 165.702 82.194 165.624 82.3284C165.572 82.4624 165.506 82.53 165.426 82.5311C165.293 82.5328 165.172 82.4811 165.064 82.3759C164.982 82.2436 164.941 82.1109 164.939 81.9775C164.934 81.6309 165.115 81.1751 165.481 80.6102C165.873 80.0449 166.256 79.7597 166.629 79.7547C166.896 79.7511 167.097 79.8018 167.231 79.9067C167.366 80.0115 167.488 80.1299 167.596 80.2618C167.705 80.3937 167.786 80.4993 167.84 80.5786C168.491 81.3699 169.626 83.4616 171.245 86.8536C171.821 88.046 173.249 91.1605 175.53 96.1971L176.478 98.3046C176.469 97.6113 176.587 96.4896 176.833 94.9395C177.378 91.7853 178.216 88.6538 179.348 85.545C180.48 82.4363 181.818 79.8314 183.364 77.7306C183.678 77.2997 183.927 77.003 184.112 76.8405C184.323 76.651 184.588 76.5541 184.908 76.5498C185.041 76.548 185.257 76.7585 185.556 77.1812C185.855 77.5772 186.005 77.8419 186.007 77.9752C186.009 78.1085 185.825 78.2977 185.455 78.5427C185.111 78.7873 184.9 78.9635 184.822 79.0712ZM203.315 88.4245C203.321 88.9045 202.975 89.9625 202.277 91.5987C201.606 93.2345 200.559 94.7553 199.138 96.1611C197.743 97.5666 196.006 98.2832 193.926 98.3111C192.22 98.3339 190.786 97.8197 189.625 96.7685C188.464 95.7173 187.869 94.0851 187.84 91.8719C187.812 89.7921 188.264 87.7326 189.197 85.6932C190.129 83.6272 191.36 81.9439 192.89 80.6433C194.419 79.3161 196.01 78.6414 197.663 78.6193C198.65 78.6061 199.479 78.8217 200.152 79.266C200.851 79.6834 201.206 80.3054 201.217 81.1319C201.229 82.0652 200.708 82.9789 199.654 83.8731C198.625 84.767 197.276 85.5584 195.605 86.2475C193.934 86.9366 192.207 87.4398 190.425 87.757C190.121 88.9878 189.977 90.1898 189.993 91.3631C190.014 92.9096 190.39 94.1047 191.121 94.9483C191.879 95.7916 192.938 96.2041 194.298 96.1859C196.351 96.1584 198.008 95.4028 199.268 93.9192C200.528 92.4355 201.573 90.768 202.401 88.9168C202.453 88.8094 202.544 88.6082 202.673 88.3131C202.802 87.9913 202.92 87.8298 203.027 87.8283C203.213 87.8258 203.309 88.0246 203.315 88.4245ZM197.205 80.2656C196.192 80.2791 195.223 80.6255 194.299 81.3045C193.374 81.9836 192.598 82.7941 191.971 83.7359C191.37 84.6774 190.981 85.5093 190.804 86.2318C192.029 86.082 193.318 85.7181 194.67 85.1399C196.022 84.5618 197.147 83.9333 198.045 83.2546C198.969 82.5755 199.429 82.0226 199.423 81.596C199.417 81.1694 199.186 80.8391 198.73 80.6052C198.3 80.3709 197.792 80.2577 197.205 80.2656Z" fill="#F9F7F7"/>
</g>
</svg>
